<mxfile host="Electron" agent="Mozilla/5.0 (Macintosh; Intel Mac OS X 10_15_7) AppleWebKit/537.36 (KHTML, like Gecko) draw.io/26.2.15 Chrome/134.0.6998.205 Electron/35.2.1 Safari/537.36" version="26.2.15">
  <diagram name="Page-1" id="K6tb_QPbFcG7mF4qsO61">
    <mxGraphModel dx="746" dy="502" grid="1" gridSize="10" guides="1" tooltips="1" connect="1" arrows="1" fold="1" page="1" pageScale="1" pageWidth="850" pageHeight="1100" math="0" shadow="0">
      <root>
        <mxCell id="0" />
        <mxCell id="1" parent="0" />
        <mxCell id="W632E_PXUkQb6_b3UC0b-21" value="&lt;span style=&quot;background-color: light-dark(rgb(252, 252, 252), rgb(20, 20, 20));&quot;&gt;/get-current-game request&lt;/span&gt;" style="edgeStyle=orthogonalEdgeStyle;rounded=0;orthogonalLoop=1;jettySize=auto;html=1;labelBackgroundColor=#FCFCFC;" parent="1" source="W632E_PXUkQb6_b3UC0b-16" target="W632E_PXUkQb6_b3UC0b-5" edge="1">
          <mxGeometry x="-0.1133" relative="1" as="geometry">
            <mxPoint as="offset" />
          </mxGeometry>
        </mxCell>
        <mxCell id="W632E_PXUkQb6_b3UC0b-16" value="" style="sketch=0;points=[[0,0,0],[0.25,0,0],[0.5,0,0],[0.75,0,0],[1,0,0],[0,1,0],[0.25,1,0],[0.5,1,0],[0.75,1,0],[1,1,0],[0,0.25,0],[0,0.5,0],[0,0.75,0],[1,0.25,0],[1,0.5,0],[1,0.75,0]];outlineConnect=0;fontColor=#232F3E;fillColor=#E7157B;strokeColor=#ffffff;dashed=0;verticalLabelPosition=bottom;verticalAlign=top;align=center;html=1;fontSize=12;fontStyle=0;aspect=fixed;shape=mxgraph.aws4.resourceIcon;resIcon=mxgraph.aws4.api_gateway;" parent="1" vertex="1">
          <mxGeometry y="161" width="78" height="78" as="geometry" />
        </mxCell>
        <mxCell id="W632E_PXUkQb6_b3UC0b-19" value="&lt;font style=&quot;font-size: 8px;&quot;&gt;player_id: str(&amp;lt;UUID&amp;gt;)&lt;/font&gt;" style="rounded=1;whiteSpace=wrap;html=1;align=left;" parent="1" vertex="1">
          <mxGeometry x="170" y="150.5" width="90" height="30" as="geometry" />
        </mxCell>
        <mxCell id="W632E_PXUkQb6_b3UC0b-32" value="" style="group" parent="1" vertex="1" connectable="0">
          <mxGeometry x="360" y="120" width="398" height="160" as="geometry" />
        </mxCell>
        <mxCell id="W632E_PXUkQb6_b3UC0b-5" value="" style="rounded=1;whiteSpace=wrap;html=1;" parent="W632E_PXUkQb6_b3UC0b-32" vertex="1">
          <mxGeometry width="398" height="160" as="geometry" />
        </mxCell>
        <mxCell id="W632E_PXUkQb6_b3UC0b-6" value="" style="sketch=0;points=[[0,0,0],[0.25,0,0],[0.5,0,0],[0.75,0,0],[1,0,0],[0,1,0],[0.25,1,0],[0.5,1,0],[0.75,1,0],[1,1,0],[0,0.25,0],[0,0.5,0],[0,0.75,0],[1,0.25,0],[1,0.5,0],[1,0.75,0]];outlineConnect=0;fontColor=#232F3E;fillColor=#ED7100;strokeColor=#ffffff;dashed=0;verticalLabelPosition=bottom;verticalAlign=top;align=center;html=1;fontSize=12;fontStyle=0;aspect=fixed;shape=mxgraph.aws4.resourceIcon;resIcon=mxgraph.aws4.lambda;" parent="W632E_PXUkQb6_b3UC0b-32" vertex="1">
          <mxGeometry x="10" y="41" width="78" height="78" as="geometry" />
        </mxCell>
        <mxCell id="W632E_PXUkQb6_b3UC0b-7" value="&lt;ol&gt;&lt;li&gt;Checks if player with player_id has current game&lt;/li&gt;&lt;li&gt;Returms row in kim-game-table with player_id and current_game=True&lt;/li&gt;&lt;/ol&gt;" style="text;html=1;align=left;verticalAlign=middle;whiteSpace=wrap;rounded=0;" parent="W632E_PXUkQb6_b3UC0b-32" vertex="1">
          <mxGeometry x="70" y="10" width="328" height="140" as="geometry" />
        </mxCell>
        <mxCell id="OcaPCj_sIO2u8TCKBRZt-2" value="200 response" style="edgeStyle=orthogonalEdgeStyle;rounded=0;orthogonalLoop=1;jettySize=auto;html=1;exitX=1;exitY=0.75;exitDx=0;exitDy=0;" parent="1" source="W632E_PXUkQb6_b3UC0b-5" edge="1">
          <mxGeometry relative="1" as="geometry">
            <mxPoint x="1040" y="240" as="targetPoint" />
          </mxGeometry>
        </mxCell>
        <mxCell id="2VuzHMaAzDHZuuD2zTL6-3" value="&lt;span style=&quot;background-color: light-dark(#ffffff, var(--ge-dark-color, #121212)); color: light-dark(rgb(0, 0, 0), rgb(255, 255, 255));&quot;&gt;400 response&lt;/span&gt;" style="edgeStyle=orthogonalEdgeStyle;rounded=0;orthogonalLoop=1;jettySize=auto;html=1;exitX=1;exitY=0.25;exitDx=0;exitDy=0;" parent="1" source="W632E_PXUkQb6_b3UC0b-5" edge="1">
          <mxGeometry relative="1" as="geometry">
            <mxPoint x="920" y="128" as="sourcePoint" />
            <mxPoint x="1040" y="160" as="targetPoint" />
          </mxGeometry>
        </mxCell>
        <mxCell id="2VuzHMaAzDHZuuD2zTL6-17" value="" style="rounded=0;whiteSpace=wrap;html=1;" parent="1" vertex="1">
          <mxGeometry x="1040" y="118.5" width="130" height="161" as="geometry" />
        </mxCell>
        <mxCell id="2VuzHMaAzDHZuuD2zTL6-16" value="Client" style="outlineConnect=0;dashed=0;verticalLabelPosition=bottom;verticalAlign=top;align=center;html=1;shape=mxgraph.aws3.management_console;fillColor=#D2D3D3;gradientColor=none;" parent="1" vertex="1">
          <mxGeometry x="1073.5" y="167" width="63" height="63" as="geometry" />
        </mxCell>
        <mxCell id="j80ca-TrUgmvoUe69zJ_-1" value="&lt;span style=&quot;font-size: 8px;&quot;&gt;&amp;lt;current_game&amp;gt;&lt;/span&gt;" style="rounded=1;whiteSpace=wrap;html=1;align=center;" parent="1" vertex="1">
          <mxGeometry x="848.13" y="250" width="93.75" height="20.5" as="geometry" />
        </mxCell>
        <mxCell id="j80ca-TrUgmvoUe69zJ_-2" value="&lt;span style=&quot;font-size: 8px;&quot;&gt;&quot;No current game&quot;&lt;/span&gt;" style="rounded=1;whiteSpace=wrap;html=1;align=center;" parent="1" vertex="1">
          <mxGeometry x="856.25" y="130" width="77.5" height="20.5" as="geometry" />
        </mxCell>
        <mxCell id="OqQP_r_2nALFeg0Kq9oI-1" value="500 response" style="edgeStyle=orthogonalEdgeStyle;rounded=0;orthogonalLoop=1;jettySize=auto;html=1;exitX=1;exitY=0.75;exitDx=0;exitDy=0;" parent="1" edge="1">
          <mxGeometry relative="1" as="geometry">
            <mxPoint x="1040" y="198" as="targetPoint" />
            <mxPoint x="758" y="198" as="sourcePoint" />
          </mxGeometry>
        </mxCell>
        <mxCell id="OqQP_r_2nALFeg0Kq9oI-2" value="&lt;span style=&quot;font-size: 8px;&quot;&gt;&quot;No current game&quot;&lt;/span&gt;" style="rounded=1;whiteSpace=wrap;html=1;align=center;" parent="1" vertex="1">
          <mxGeometry x="856.25" y="170" width="77.5" height="20.5" as="geometry" />
        </mxCell>
        <mxCell id="7-uQhjpg10ObJyRmrvha-1" value="Mapping Template" style="shape=image;verticalLabelPosition=bottom;labelBackgroundColor=default;verticalAlign=top;aspect=fixed;imageAspect=0;image=data:image/png,iVBORw0KGgoAAAANSUhEUgAAAnoAAABmCAYAAABcITzFAAAMQWlDQ1BJQ0MgUHJvZmlsZQAASImVVwdYU8kWnluSkJCEEkBASuhNEJASQEoILYD0ItgISYBQQgwEFTu6qODaxQI2dFVEsQNiR+wsig37YkFFWRcLduVNCui6r3xvvm/u/PefM/85c+7MvXcA0DjBk0hyUU0A8sSF0rjQQObolFQmqRtggA6oQAe48PgFEnZMTCSAZaD9e3l3AyDy9qqjXOuf/f+1aAmEBXwAkBiI0wUF/DyIDwCAV/El0kIAiHLeYlKhRI5hBTpSGCDE8+U4U4mr5DhdifcobBLiOBC3AKBG5fGkmQDQL0OeWcTPhBr0XoidxQKRGAANJsR+eXn5AojTILaFNhKI5fqs9B90Mv+mmT6oyeNlDmLlXBRFLUhUIMnlTfk/0/G/S16ubMCHNazULGlYnHzOMG83c/Ij5JgKcY84PSoaYm2IP4gECnuIUUqWLCxRaY8a8Qs4MGdAD2JnAS8oAmIjiEPEuVGRKj49QxTChRiuEHSyqJCbALE+xPOFBcHxKpuN0vw4lS+0PkPKYav4czypwq/c131ZTiJbpf86S8hV6WP04qyEZIgpEFsWiZKiIKZD7FSQEx+hshlZnMWJGrCRyuLk8VtCHCcUhwYq9bGiDGlInMq+LK9gYL7YxiwRN0qF9xVmJYQp84O18HmK+OFcsMtCMTtxQEdYMDpyYC4CYVCwcu7YM6E4MV6l80FSGBinHItTJLkxKnvcXJgbKufNIXYrKIpXjcWTCuGCVOrjGZLCmARlnHhxNi88RhkPvgREAg4IAkwggzUd5INsIGrraeiBd8qeEMADUpAJhMBRxQyMSFb0iOE1HhSDPyESgoLBcYGKXiEogvzXQVZ5dQQZit4ixYgc8ATiPBABcuG9TDFKPOgtCTyGjOgf3nmw8mG8ubDK+/89P8B+Z9iQiVQxsgGPTI0BS2IwMYgYRgwh2uGGuB/ug0fCawCsrjgL9xqYx3d7whNCO+Eh4Tqhk3BrgqhE+lOUo0An1A9R5SL9x1zg1lDTHQ/EfaE6VMb1cEPgiLtBP2zcH3p2hyxHFbc8K8yftP82gx+ehsqO7ExGyUPIAWTbn0fS7enugyryXP+YH2Ws6YP55gz2/Oyf80P2BbCN+NkSm4/tx85iJ7Hz2BGsATCx41gj1oodlePB1fVYsboGvMUp4smBOqJ/+Bt4svJMFjjXOnc7f1H2FQony9/RgJMvmSIVZWYVMtnwiyBkcsV8p2FMV2dXdwDk3xfl6+tNrOK7gei1fufm/AGA7/H+/v7D37nw4wDs9YTb/9B3zpYFPx3qAJw7xJdJi5QcLr8Q4FtCA+40A2ACLIAtnI8r8AA+IAAEg3AQDRJAChgPo8+C61wKJoFpYDYoBeVgCVgJ1oINYDPYDnaBfaABHAEnwRlwEVwG18EduHq6wAvQC96BzwiCkBAawkAMEFPECnFAXBEW4ocEI5FIHJKCpCGZiBiRIdOQOUg5sgxZi2xCapC9yCHkJHIeaUduIQ+QbuQ18gnFUCqqgxqj1uhwlIWy0Qg0AR2HZqIT0WJ0LroIXY1WozvRevQkehG9jnaiL9A+DGDqmB5mhjliLIyDRWOpWAYmxWZgZVgFVo3VYU3wOV/FOrEe7CNOxBk4E3eEKzgMT8T5+ER8Br4QX4tvx+vxFvwq/gDvxb8RaAQjggPBm8AljCZkEiYRSgkVhK2Eg4TTcC91Ed4RiUQ9og3RE+7FFGI2cSpxIXEdcTfxBLGd+IjYRyKRDEgOJF9SNIlHKiSVktaQdpKOk66Qukgf1NTVTNVc1ULUUtXEaiVqFWo71I6pXVF7qvaZrEm2InuTo8kC8hTyYvIWchP5ErmL/JmiRbGh+FISKNmU2ZTVlDrKacpdyht1dXVzdS/1WHWR+iz11ep71M+pP1D/SNWm2lM51LFUGXURdRv1BPUW9Q2NRrOmBdBSaYW0RbQa2inafdoHOoPuROfSBfSZ9Ep6Pf0K/aUGWcNKg60xXqNYo0Jjv8YljR5Nsqa1JkeTpzlDs1LzkGaHZp8WQ8tFK1orT2uh1g6t81rPtEna1trB2gLtudqbtU9pP2JgDAsGh8FnzGFsYZxmdOkQdWx0uDrZOuU6u3TadHp1tXXddJN0J+tW6h7V7dTD9Kz1uHq5eov19und0Ps0xHgIe4hwyIIhdUOuDHmvP1Q/QF+oX6a/W/+6/icDpkGwQY7BUoMGg3uGuKG9YazhJMP1hqcNe4bqDPUZyh9aNnTf0NtGqJG9UZzRVKPNRq1GfcYmxqHGEuM1xqeMe0z0TAJMsk1WmBwz6TZlmPqZikxXmB43fc7UZbKZuczVzBZmr5mRWZiZzGyTWZvZZ3Mb80TzEvPd5vcsKBYsiwyLFRbNFr2WppajLKdZ1lretiJbsayyrFZZnbV6b21jnWw9z7rB+pmNvg3Xptim1uauLc3W33aibbXtNTuiHcsux26d3WV71N7dPsu+0v6SA+rg4SByWOfQPowwzGuYeFj1sA5HqiPbscix1vGBk55TpFOJU4PTy+GWw1OHLx1+dvg3Z3fnXOctzndctF3CXUpcmlxeu9q78l0rXa+NoI0IGTFzROOIV24ObkK39W433Rnuo9znuTe7f/Xw9JB61Hl0e1p6pnlWeXawdFgxrIWsc14Er0CvmV5HvD56e3gXeu/z/svH0SfHZ4fPs5E2I4Ujt4x85Gvuy/Pd5Nvpx/RL89vo1+lv5s/zr/Z/GGARIAjYGvCUbcfOZu9kvwx0DpQGHgx8z/HmTOecCMKCQoPKgtqCtYMTg9cG3w8xD8kMqQ3pDXUPnRp6IowQFhG2NKyDa8zlc2u4veGe4dPDWyKoEfERayMeRtpHSiObRqGjwkctH3U3yipKHNUQDaK50cuj78XYxEyMORxLjI2JrYx9EucSNy3ubDwjfkL8jvh3CYEJixPuJNomyhKbkzSSxibVJL1PDkpeltw5evjo6aMvphimiFIaU0mpSalbU/vGBI9ZOaZrrPvY0rE3xtmMmzzu/HjD8bnjj07QmMCbsD+NkJactiPtCy+aV83rS+emV6X38jn8VfwXggDBCkG30Fe4TPg0wzdjWcazTN/M5ZndWf5ZFVk9Io5orehVdlj2huz3OdE523L6c5Nzd+ep5aXlHRJri3PELfkm+ZPz2yUOklJJ50TviSsn9kojpFsLkIJxBY2FOvBHvlVmK/tF9qDIr6iy6MOkpEn7J2tNFk9unWI/ZcGUp8Uhxb9NxafypzZPM5s2e9qD6ezpm2YgM9JnNM+0mDl3Ztes0FnbZ1Nm58z+vcS5ZFnJ2znJc5rmGs+dNffRL6G/1JbSS6WlHfN85m2Yj88XzW9bMGLBmgXfygRlF8qdyyvKvyzkL7zwq8uvq3/tX5SxqG2xx+L1S4hLxEtuLPVfun2Z1rLiZY+Wj1pev4K5omzF25UTVp6vcKvYsIqySraqc3Xk6sY1lmuWrPmyNmvt9crAyt1VRlULqt6vE6y7sj5gfd0G4w3lGz5tFG28uSl0U321dXXFZuLmos1PtiRtOfsb67earYZby7d+3Sbe1rk9bntLjWdNzQ6jHYtr0VpZbffOsTsv7wra1VjnWLdpt97u8j1gj2zP871pe2/si9jXvJ+1v+6A1YGqg4yDZfVI/ZT63oashs7GlMb2Q+GHmpt8mg4edjq87YjZkcqjukcXH6Mcm3us/3jx8b4TkhM9JzNPPmqe0Hzn1OhT11piW9pOR5w+dybkzKmz7LPHz/meO3Le+/yhC6wLDRc9Lta3urce/N3994NtHm31lzwvNV72utzUPrL92BX/KyevBl09c4177eL1qOvtNxJv3OwY29F5U3Dz2a3cW69uF93+fGfWXcLdsnua9yruG92v/sPuj92dHp1HHwQ9aH0Y//DOI/6jF48LHn/pmvuE9qTiqenTmmeuz450h3Rffj7medcLyYvPPaV/av1Z9dL25YG/Av5q7R3d2/VK+qr/9cI3Bm+2vXV729wX03f/Xd67z+/LPhh82P6R9fHsp+RPTz9P+kL6svqr3dembxHf7vbn9fdLeFKe4lcAgxXNyADg9TYAaCkAMOD5jDJGef5TFER5ZlUg8J+w8oyoKB4A1MH/99ge+HfTAcCeLfD4BfU1xgIQQwMgwQugI0YM1oGzmuJcKS9EeA7YGP01PS8d/JuiPHP+EPfPLZCruoGf238BoIF8bwqzkqAAAACKZVhJZk1NACoAAAAIAAQBGgAFAAAAAQAAAD4BGwAFAAAAAQAAAEYBKAADAAAAAQACAACHaQAEAAAAAQAAAE4AAAAAAAAAkAAAAAEAAACQAAAAAQADkoYABwAAABIAAAB4oAIABAAAAAEAAAJ6oAMABAAAAAEAAABmAAAAAEFTQ0lJAAAAU2NyZWVuc2hvdHyFQ28AAAAJcEhZcwAAFiUAABYlAUlSJPAAAAHWaVRYdFhNTDpjb20uYWRvYmUueG1wAAAAAAA8eDp4bXBtZXRhIHhtbG5zOng9ImFkb2JlOm5zOm1ldGEvIiB4OnhtcHRrPSJYTVAgQ29yZSA2LjAuMCI+CiAgIDxyZGY6UkRGIHhtbG5zOnJkZj0iaHR0cDovL3d3dy53My5vcmcvMTk5OS8wMi8yMi1yZGYtc3ludGF4LW5zIyI+CiAgICAgIDxyZGY6RGVzY3JpcHRpb24gcmRmOmFib3V0PSIiCiAgICAgICAgICAgIHhtbG5zOmV4aWY9Imh0dHA6Ly9ucy5hZG9iZS5jb20vZXhpZi8xLjAvIj4KICAgICAgICAgPGV4aWY6UGl4ZWxZRGltZW5zaW9uPjEwMjwvZXhpZjpQaXhlbFlEaW1lbnNpb24+CiAgICAgICAgIDxleGlmOlBpeGVsWERpbWVuc2lvbj42MzQ8L2V4aWY6UGl4ZWxYRGltZW5zaW9uPgogICAgICAgICA8ZXhpZjpVc2VyQ29tbWVudD5TY3JlZW5zaG90PC9leGlmOlVzZXJDb21tZW50PgogICAgICA8L3JkZjpEZXNjcmlwdGlvbj4KICAgPC9yZGY6UkRGPgo8L3g6eG1wbWV0YT4Kp9JIIAAAABxpRE9UAAAAAgAAAAAAAAAzAAAAKAAAADMAAAAzAAAH3/l1INUAAAerSURBVHgB7N17TJV1HMfxD3dFLoYgC5eXkc2NJC+4udIl5aJFusR7y2ixXIxJbbg51KmYt9SZOrCZt5V5YUMx1yzDy9B0MqeWpfKPecnckCnidSpwOs9pbB6MHWHnOZ7z4302h8/D7znP7/v6fcf58Oh5TtAraa87xAMBBBBAAAEEEEDAOIEggp5xa0pBCCCAAAIIIICAS4CgRyMggAACCCCAAAKGChD0DF1YykIAAQQQQAABBAh69AACCCCAAAIIIGCoAEHP0IWlLAQQQAABBBBAgKBHDyCAAAIIIIAAAoYKEPQMXVjKQgABBBBAAAEECHr0AAIIIIAAAgggYKgAQc/QhaUsBBBAAAEEEECAoEcPIIAAAggggAAChgoQ9AxdWMpCAAEEEEAAAQQIevQAAggggAACCCBgqABBz9CFpSwEEEAAAQQQQICgRw8ggAACCCCAAAKGChD0DF1YykIAAQQQQAABBAh69AACCCCAAAIIIGCoAEHP0IWlLAQQQAABBBBAgKBHDyCAAAIIIIAAAoYKEPQMXVjKQgABBBBAAAEECHr0AAIIIIAAAgggYKgAQc/QhaUsBBBAAAEEEECAoEcPIIAAAggggAAChgr4JOj17/+yevfurdjYWNXU1KiiYp+hnJSFAAIIIIAAAgj4j4DtQa+wsFADBw5wVdzY2KiqqiqtXLnKfwSYCQIIIIAAAgggYKiArUGvX79+mj+/SPX19VqwYIEuX/5bDofDUErKQgABBBBAAAEE/EvA1qCXnp6u3NxPtX//Aa1du9a/Kmc2CCCAAAIIIICA4QK2Br0xY8Zo8uRJ2rVrl7Zu3WY4JeUhgAACCCCAAAL+JWBr0Bs7NksTJ05UeXm5tm3b7l+VMxsEEEAAAQQQQMBwAYKe4QtMeQgggAACCCDQcQVsDXpTpnygUaNGqbS0VDt27Oy4ylSOAAIIIIAAAgg8AwFbg97cuXOUkpKikpI1qqysfAblcUoEEEAAAQQQQKDjCng16MXExCgxMVHR0dHOe+cNVEbGW6qrq1NBwXTduXOn4ypTOQIIIIAAAggg8AwEvBr0mm+n0lzH+fPntXTpMlfYa97HVwQQQAABBBBAAAHfCHg16CUkJKhPnz6uK3qDBg3SkCFpOn36tJYtW64HDx74piLOggACCCCAAAIIIOAS8GrQa2m6ePEiJScnuz7y7OjRoy2/zTYCCCCAAAIIIICAjQK2Br3s7A+VmZnpuoeedS89HggggAACCCCAAAK+E7A16HHDZN8tJGdCAAEEEEAAAQRaChD0WoqwjQACCCCAAAIIGCJga9DLysrSpEnWR6Dtcv7zLZ91a0jPUAYCCCCAAAIIBIiArUFv5MiRmjr1E1VU7NO6desChIRpIoAAAggggAACZgjYGvRSU1M1e/YsXbt2TTNnztKtW7fMUKMKBBBAAAEEEEAgAARsDXpBQUFasmSx6956DQ0NunHjhk6cOKlNmzYFAA1TRAABBBBAAAEEAlvA1qBn0YSFhWn48OGusNe1a6wuXbqssrKywFZj9ggggAACCCCAQAAI2B70AsCAKSKAAAIIIIAAAkYKEPSMXFaKQgABBBBAAAEEJIIeXYAAAggggAACCBgqQNAzdGEpCwEEEEAAAQQQCPigFxoaquDgYD169EgOh0MhISGuP9a7fJuamryywjk5OUpM7O72XDt3lqu6utptHxueBfLy8hQTE6P169ertrbW8wH/MyI7O1s9eiRpw4aNqqmpcRthvdPbegOQ1QtWT1iP8PBwt223A3y8ERQc5OzPYDU1Njn70yFrviGhzm3n3619nh4ZYwao63NdtLv0uO7ffehpON9HoN0CoycPUefO4SrfUqWHDxra/Ty+OPDdCWmKjIrQ3vJTqq+754tTBvQ5Mt5z/hyJ6+JWw5ED1bpy8brbPjY8C3ij90aOSlW3hGj98sNvqrt+1/2kQVJoaIjrNayx4b/XiNCwEMkhNTQ0uo9tZSvgg15ubq7S00do3rwinT17VhMmjNe4ceNUXFyiQ4cOtVJ223YXFBQoKSnJdVC3bnGKjIzUihVf6dixY217IkZr8+bvFBERoTlz5rY7KC9cuFB9+76oGTNm6MKFi26q8fHxWrOmRGfOnFVRUZErSJWWbncFwmnT8t3GPouN/oN7yvrBcLjinH7dd069khP0/tTh+v34Re0pO+lxSjmfv6nuz8eqeNFPul1/3+N4fx5gBd6015LVu293lW444ndTjYrupKEjXlKjM4Af3POn382vPRNqS035s99RF6fByqIfdf+ef/9SMf2L0QoLD9XmrysJK0/RGFlThjqDRZRrZHRsZ0V0ClP591Wq/uOfpziaIY8LeKP3svNGKKlnnDauOqCaqzcff3rFdI1UXuHbuvxXrbasPez8D3dS4ZIs3bxxV19/uddtbGsbBL3WZFrZn58/TcOGDSPoteLjabcVzqwreqtXr37iapynY5u/31GDnvVC9vFnbyguPkrfFh/U1St1rt/qml0C7at1RSF3Roau197WN8sr/G76qWm9lDl+sE5VXdDPO0/53fzaM6G21BRIQW/8R68qsku4dm8//uQVkfZAdaBjrCu3KQNeIOi1c8290Xt2B71/AQAA//8A9fjJAAAlz0lEQVTtXQd4VMUWPkjvLXQCSEeaAj6QXkSKFEWxAD5ApTdFAREQafpQiiCKtCcICCgPERSQIkVQiiK9SSf0GqpS3/kHzubuzd1kd5PdBHIm35fb5s6d+e/szD+n3USly1W7Q/dx6tChA9WoUZ3ef38A7dixg154oSk9//zzNGbMZ7Rq1apYb1nXrl2ocuXKNGLESFq7dm2sl68FRo/AkCFDqFChgtSrVy86cOCg2w0hISH0+eef0fbtO2jAgAGUKFEimjVrJp08eZK6dOnqljcuDkqWzUMNXihHvyzZSauX7qS8BbJQs7ZVaPOGg7Rg9kbHKqXPmIpqNy5NBYpkp4ceSuTKc/2fmxR26Cz9+O0fdPni367z98tOhkypqUOvOnT29CUaP2xJvKt2qXJ56emmZenPdQdo0Zw/4139/KmQL23q2rc+pU6bgj4Z8ANdu3rdn8fpPfcBAo1efpyKPxpK301bR7u2Hr0PavzgVbFlp+qUM08m+u+on+nksQtuDUyXIRV16l2XDu8/TdPH/ULEU0Dv/zShC+eu0NihP7nl9XSQKKERvaRJk9KdO3fo5s2bBpNs2bJRSEhm2r//AF27ds0TTq7zvhI9PC979uyUKVMmLuMOE45TdOLECVd5sgNCkiRJEnN448YNOR1pi/KQUH+0w55SpkxJefLkodu3b9Phw4fpn3/+sWdxHSdOnJiJw0NuZaVJk4YKFMhP586dp7CwMMdnuArwcsfaNrnFU/3lumyBSb58+Ux7Dh48aLYJieilTJWMXnujFqXhCXfvrrv9JiRbWlq/ai/lzpeZChXPQVM/X0mnjocLZJG2SZMloZCsaXnSTk7h56/S6RMXI+WxnkjEZDJTSBpKlz4lnTl1iS6Fe/5dJE7ykLn11s3bZps8Bff3XBkM8Tx35nKk/oO+kDjx3XtAYNu+XZuQb9LIZdYq0K1btyPd68rAA11GJokZMqehc0wS0SanlCRJYnP65q1b+OlFSmhnYu7/t/l3dJufhwQijd8EUgkm5fWaPEab1x+kxd9vNufk382bXGYsJdQzY0hqSpsupanmhbNX6PzZyx5LB4ZITr9/p2v+tslO9KJ7t/YKo+9myZ6ebly/afpcVJhJv8C4dfv23ZcFXDD53bxxk/v3RR6n3DGXe6zP9fSuJQ/6q/Q/OWff3rh+yxFb5HuI+y5+S2jbqRPhdO2KZwIs9fOlTfa6eHNsfoMMGX4zSBkzc19Kn8oQhn/+9jyXSNm+Ej2v+yt30yQ8x9zhPxkf5JnWLeqfiP88vbtkyZNQ1hzp6Q73i1M8dqE/eUrS163jB95V9twZeUy6RqdP8tjnMBZ4Ks/TeXm31uue6m/Ng330v2w505t+fpLHbbRLiZ4dJduxrxK9qVO/oqtXr1KfPn2pb98+lDNnTlMiBs2VK1fS+PETXCTQ9ihz6C3RS5s2LXXu3IlKlChBQs6kvEOHDtHEiZNo9+7dcopffmIaO/ZzypAhA3Xv/pYhWa6L93Zy5cpFI0eOoPDwcGrfvgP/sCMGvsyZM1OHDu2pZMmSRoqFW9Cm5cuX05dfTnYkfCL9hHTyyJEj1LFjRypYsIDr/qNHj5q6OE0o9rpFdVytWlXq1KmTW5b33utPu3btcjtnP6hXry61aNHChR+I+MiRn1DTpk0DItHDO+vYsQMT/yw0efJklgput1cpxse+SvQq1SpKVZ96hLZvOkLzZmygyk8Wo4LFstPkT5ebuqRImdQMGJDu2RMkZvWfL0N582cxq0C5Dgnash+20r57xFHOY1v2ifxU4+mSjPldkoRzFy9cpXkzf6cjB87g0C2BDCTmCXn04B/p2eblqWDR7AQChXQ87Dz976u1bkSxWOnc9Eyzf7mV4XTw3XSWLmyJLF14tPzDVKNeCUK7JYGIzp/1Ox3ad1pOmS2kcZBg/b5mHy2Z507UMFm17FzdTCDzuW3b/jxs7qn77GP0WIWH3cpxOhg18Ee6esXzIsrpHvu5lKmTUUOW7uYtmIUXeRF4Ix+I+09zN1HYwbNut2XOktaQY5D1iSOXul3DwVsDGxEmxmF9v6cbN+6OD/62SYjep4MXUF0mvNG9W6lMugwpqfHL/zILETmHyWzL74doMb+Hm/fqJdewFcn2H7/tp59/3EqNXnqcJdjZKMm9fgiJ4rQvVtEZTNT3kvyW5BjbqWNXRsLMev3JhqXo8coFraci7U8YsdTtOciAetSsX4LQ/6xEEe9n3swNjosNf9oUqTJenHh7cGMCoZsyZgW99HolQh9Bwri99Y/DRhotJNCpOG+Jnq/9FaSr87v1jFTYCVPUJTOT5rZv1aYrl/+hMR8sdC24cA39qP7zZenhglld4xfahH60hBde0r+RV1KV2sXMGAnpJH4jDV4oSzlCM7rmtLO8cB0/grUHMSR7/vQ91LFcpQLcj0rymHl3MYn3Nvfr9VSFx3WV6MlbdNi2bt2aVamV6KOPPjbEqXHjxtSoUUNDpH777bdId4DoJUvGq7FTp4wEb/XqNUaSVr16NSN5W79+PQ0bNjzSfXLCW6InpGzfvv20c+cOluKdNJKCIkWKUMWKT3AnvUH9+vVzUz02a/YyPfPMMzRv3jyaNm26PNK1bd68GaF99uuQePXv/x6lTp2aNm7cSJs3bzFtqlChgiFEO3fu4uv9XeXIjhA9PAvthzRwx46dTCQvEOpfunRpatasuZGiyT3+bFG/8uXLm1urVq1CWbJkoeiIXuPGjah58+bmHS1ZsoTOnDlr6lOyZAn6+++/KV26dI6qWxDejz4aavoC+gRWXhMnTqDTp0/TO+/0jrL69evXp1atWpo8O3fuZMzejzK/PxdBdOo88yitXbGH1q7cYybD51s+Qdv/PBKJjKB8kCLcM3vKb/TXjuORiJ6nOoQ+HEIvvlbJELbD+8/Qwb3c31n6EJI9HRV+JIdR0Sydv8Xt9mp1HqGKNYsSSCPUlZAs5cqbiUqUyWNWnd98+Svt33PS7R4hA3/tPM4SwFS0e9tRIw0sViq3Gcx2bgmjudPXu+7Jws8vWjKXOU6RMpkZ+DCJ//HrPlce7Oxkkmed1HFOiBvasWk9148leZCugJhh8p01aQ0d+OsUspoEstqqSw0KyZaOZk9m/LiOkp7idwBSa1eZg0Tn4NU/UracGagQY3Xi6AXaa7kX19au/CtKyQLyRJeEtIEQg0SfP3PFkGRIaouVymWkIF+xtNaqypF7fCF6/rZJ3i0wTZU6ecS75f4IvO3vFu2FqrdN9yeNxAuqpj3bjxMkgSXKhLKkKY0hYSBj9iSkCGXevHGbipTMSYf2njbSXkiW8zPpmzN1nenHci+kIkVK3O1L6KOQEEdH9EBWga89JeM6lq2Q3xCKcR8vNs+VPJCIt+JFAfoRCPiOzWGGWGEBVZTfE/ovTA/sxN+fNskzfdmC6CXlhcKF81e4XjdpBy8KIXksVS6PwXzPtmP0v6mezYy8JXrS93zpr9XrFacnqhcxY93yBdsiNQuLtgrVC0e6jnfbrG1Vs6CDJuMAjzvocxg7QIjwewHxtychengWyBj6Hsa/K5f/NgQ4f+FsNLTPXDOe2e/15difvlehWmGqwYsFjK8b1+7nBfQ1Qn3y8ULvOksp8RtzUt2m5f4PrQ4WFZgHoLp9470GZnHx5eifvar2fa+69aqVlkwgesmTJzdqzb59+xnSgMvp06c3BCFjxoyOBEKK8JboQQWaI0d2+uuvvXKra9u06fNGKrV69WoaPfpT13moeEeN+sRI7Dp06OgmsQNhgcQPKuA33niTjh075rpv0KCBBAI5d+5c+vrrGa7zUEH17v2OIUjDhw+ndesiJlxkEqIH9e7mzZuNXSNIlKTQ0NBYU99Kme+9189IOaMieng/aCswtOcTCS7Kc7LRk+f4swUx7t79TXPrmjVr+F2M9qeYWL2nVoOS9K8qhYw9H+z67BI9p4dhJY2BARMT7ABxnzWBAGGwtErAUqdJTh3fqWsG0ymfrTDSOLmnfNVCVJOlfCA89oFFyMCxw+eM/Yio1zAptHnrSbNyHsk2Xk4qJF9s9B4ulJWlFZVNOZiIIQGQBFLbon1VMwljoLRKoCExaN21ppEiTfpkmZEugryBXIMsTR6z3FHChLJ9sWeTuviyhUopI6vIgZ094T1j0hJJrlyXydYXoif3YutLm/x5t7UalOL+WpBALuawVBaSPCRIg1p1rkF453bSjetCiqCWu8gS2m95UXGeFxqSMAmiX1++FDE+yTVsYeeKMqIjetZ7XPs8cT73SgUqXDyno/S3Wp3ivAAqYsjF1xNWu0mdROLuJDWOaZtc9YtmxxA9/k2jT3zFv12QBqRU/JsWsw8nAiHFekv0/OmvIPftezxliJaR2N3rD3g25jTYnoHIgChD0yDplQ7VDCH/bcVuWrEwQrMCbcELrSsagjSHyetu7mfWJEQP/ejAnlNG0i94IB8WmrGlvpXnetP3sFhAW4GhvY/KAhblRfWe5Hn+bBMs0Rs3bjwtW7bMDTORqP3002KaNGmS2zU58JboSX6nbe7cudmZYzirS8PorbfecssCyVzx4sVp6NCh9McfEcb5kK716fOuUXeC/EhCXtwDmzeQQ6h1rUmuO0kqhehBJdq5cxe6dCnih2YtIzb3vSF6VatWNWrv3bv3GKmn9flQtX/yyUhzKraJHtTnkGxCdbt48WI6f/689dFxsg/bFEyQDyVOxKrWk4bEpEmXwqW6daoUpAxQo8L2bfzwJa7J1imvnJPV5t6dJ+jbyb/KabOFmqFLn/pmkILKGCt6SUIG5rCqZLfNkPvVbjWNVAwqRkxC9uQL0QORA6HbsHov2SWRKFeug8zZ7RVLls1rVDhY2f/wze+G+CXhNn3JbYEqx1PyhRR5KsPf8yDpkIxBqgm1l6S4IHpev1smTG+z6hiTGhYEWBhYkywYIKEBkbMmIUU4NxOSWZvk2JrXad+bydbpPpwTsob+MWPCLy4bQVzDouiN9xsY1TrMEPZsdycWULl3H9iQpbu3aOT783GLK8W0Ta6CotkRorfwfxtZ0n3QLbdI1DayShymAE7JW6LndK+c89RfcV3eDcYVjC+SIM2C1gGSKquUV3CDuhnk8KplUYd75bqTpFKIHqRmnw9dFKUNpdQjpltpn53AWcuFxLnhi+WM8xxsqq1JftM4p0TPikwM9kWi52QHV7ZsWZYS9TSqTxj8OyVfiR7UlKVKlSSoFCE1hNw1WbKkVK1aNTp79qwhZ9bnVK5cmfAMSN8ghZPUrVtXqlSpEnuUjqUVK1bIaRJ144YNv9MXX3zhskVABqyY0qVLa8o5dOgw9ejRw3UfdoTorVu3jvOMcLsWqANviJ7Uy66iljpNmjSR0rI9XWwTPSk/vm0LsLqp7rOPss1KKlfVIO2Ajd2vP+9yk24hA2z6MHlBPbx8YWR1iasQyw5ssB5j+yOoPKBStqcXX61k1GewJ9nJqitJQvTs6i5cf4HvgZ2Vp4nbF6L35vsNjRoHgylW/jDediXehf0UCB1UVJgA7Am2OrgONRtW1SB8sF+KKgWL6EHlmI8lllBRpk6TwqhmQERRX9gfYrKTJJNCMCV63r5bqG3RH2A7BRtBe4IUGUbnTl7WMnnj/cDL19fkzWTrVCZUuU1bVTRSxC8//TkSqcBCC1KxKyxJxCICjjuuvnevC0L6BOclEL2/r91wPSambXIVFM2OED0nO7hCxVh63eoJQ5zxO3RKvhI9X/orngePXjwD0jdI4SQ15nOP8DVEDYDdnSTYUMKWEqYqP87+IwJvZGDMId3FIggLOrwTaxKih0UnFijBSN70PakXxlYnFTZUsZB6K9GLpTcmRO/VV1+jy5fdPdsQsgMED04Ib77Z3fGJ3hI9kKw2bV7n0C81WB1219D6+vXrxt4N16CehPStTZu2bs+B48a4cV8Ye7m2bdsZKVuqVKnYSWScUeXinNWTFs+oXbu2WxlOB3BAadWqtdslIVTz58+nqVOnuV0L1IE3RA8OEdWrV+c6TaX58yMP+iDAoaG5EwzRw7uAVA02QbBnwYQJNRZsVjCxzJy42k3K9kxztutjG7lF3/1Jf6494NWrFCIHp4ZtGyMTIFEvgDiCQEoSoucUggMTDCYa2PY5OX54S/SgVu7a72l5ZJRbSPsg9bMnSGbasQoJaiL7hGPPK8eBJnoYB0DgSz2ez7xPPBeOCnfJBEuTWDIGFfXoQT9KlYydETyVg0n0vH23QuQ8hX2QMBFo48c2IiikCNJicTRyNdqLHW8mW3sxIGew4cRva9rYVW6/IcnrrfMQ8v931DK2p4zQqMS0TVKH6LZC9Jzek7wTJ3It5XpL9Pzpr3iGaASSs5PQ6CELjJQNtnMYO+BhPZqdfayetN46D8EcZER/dymqEKp1q/4yTj3SxkBuvel7Mn7C0Qh1sycQV0hFlejZkfHzWIjea6+9HklVKUQP9m+wg3NK3hI9xPIDkYI365QpXxnnACFosAMEmXMienhm69atqF69euz5OYUWLFhAtWrVonbt2tLSpUuNV7C1XkL0INGzevFa82Afql2UZU1C9GbOnEVz5syxXgrYvjdED97DIMhK9CK/BrHRA3mqWKOI8SCEihZSF0kBJXo2iV8wiR4kRatt9obSZtnC7tCqWpbzIrmBRABSI7HXk+tO20ATPbHDA2lb9sMWVuucc014UM9DXe4z0RvEXrdMEK1et9a2+dImX9+tkIroiJ6TxE9I0UF2/JjBCxdfkzeTrbVMYASva0yudomSNZ8QPbwjpwWQNe9WXiBB8icppm2ScqLbBovo+dNfpe61G5U2jleyEHv0X/mo3nNlaBM7fS20xagUogeJnt3rXMrDFqpd+6JOiN7Kn3YYbYc1f6D2vel7iH5Qmhd0SvQC9RZs5QrRc1LdlitXjnr27BGl6rZLly5UpUplE+bDyatXHgenihw5clC3bm/Q8eMR3n64XqRIYRo0aJBHohfKThDDhw8jhGHp0aOnyYt73n23D+3d6y6tePrp+tSyZctInrhSj6i2cUH0+vXra0LASIBrp/qJs0pcqG7heQy1MLyy42MSomekHkxaujIZgMrssw8XmTAoqLOobu2GzFG1J6aqWydpQmxJ9FDv7gMashQ8KQ17b56LDEXVHus1hGl4tVstY2/1O3v3wh4Rgaans9eexGyz5pd9X0iR3OPLFhJGSJWcVKO582amVzpWM6rEURaJHmKkte/JQaYRJoLtL60J9mI9hjQ2p+KC6MWG6tZfovcyO+pA/T193CrjZWnFJdI+/26atKjAHrs5jbe3PUaiNT+8K9F3/JE0BpvoOapu7zkewebRo+qWQ9kUfyzUeMfD69lT8qe/Sllwgnj9zQh1K/o2+vgUdoY6diTC5hf5RXXrSc0pZTpt44LoedP3hCR7atMb/Vl1yyYlKtFzeqt+nBOiN2HCBFqyJMLIGUVJ+BIY4iPOnVN65ZUW1LBhQ/ruu+9oxoyZTlmMbdyMGV8bw3mEJ7F6AeIGITJXrlxh6d2rjmUMGTKYQ6MUYseDUSxd7Ga8hN9+293GDjciTh+kZAcOHDDhQ+zPciz83sm4IHpdunRmolyFY/t9SQsXLnKsHmwRYZPo5IwhYWtwY2zb6IFgA3eo1adNm+aoNnascBBPWokeJvYurP5ATLnPPlxo3PVRFahtIdWDHd/4YYujJDNSdXHGgIoV0kJrsj7HkzOGP0QPNimwTYEKBvdHRbrE2ULCzFjrF9U+wky0aFfVhInB1y0QNgaOKnBY8TToSnkI5fBsi/JG7WzHRPJ42iI0CwK0Wr2DrXmhBuv1wTNmbEC4B3tcL5kYoJq3GvlDnfs2S+3s51E2wsJAFYnkiej50iZfJXqQlpo4flxHez9BnaSPReWM4S/Ra/hSOSrxWB4ToggesFElhBBCKCGE6Ph6vLvzhf0+ccZg0zz6gr9C4Mnr134fjmNK9EygYA44HXb4bKT+YX2eSPSkf1uvSfgShPP46TtnZwx41MNR5tefd9PKnyI8XK3l+NtfrWX8m+0zc7HZCex8ETbKk/mB4Ga8/Nlu0v7bsJZp348LoudN34MtImwSscCM5IxxL5Yg2qJEz/5G/TwWogeP1759+7q+hgFHiY8//sgELI6KQMB2DDZk+/btMxI2T8Rq9OhRJi4fYrEhJpskEJUPPhhibPBwL4igNfCx5KtZsyYHRW5n6gcpE4IeL1wYYZQt+bAdMOB9KlasGBPPGUxAedKwJXj5IlSJPUBxXBA9xAEEoUa8v//8Z6itpncPYaeIz5jhnVjxw2DTqVNHglcuUlTv6W5Jvv1v0qQJvfTSi+YmEOdevd7xrYAA5MaEBJXe/t13PW6tRK8Mx4FDTD676hYhCF5jKQRW0XDWWLl4h9tgCZuZnKF3Y1FJlRGKAeFV4ASAgeioJeSHTNBOUg2fyYA88N4WpAXkJSqPNWSVwR/k9evxq1ykVooDGS1WOlckBwuZxKzG2bAPgoF9enZu+XaKuyeglIetECfYD30y4MdIX2aw5rXuy2SDr21MHrPCLQ6eNV/7nk+ZOGeIB2YNRo2QMHBaQD0xRnz07lw3Egx7RdgtzuBQH4iPiIR33oRJKUKEIHkier60yZ93K3hD7QbHGAmvgv4F73EY8tu9L1Ffeb/+Ej3YroLUOJFIlC8Jjk1N2XYUnwz8L3sG2z06JZ91KxJytAkkxR7wGW2DdMrukRuTNmHxht8j+oC171rrJftC9OChjdBIEjwdfQT9HJLWqAiESK7x+0bQZU9zmr/9VeoJ1SVUmFjYoV0IYu6JlMvCbsWi7fTb8ogPC0hZULkDI7tqV357wVTdetP3MD4hvAr6itvvnRdHCJoOr1ykqN6TtN2fbYINr4IAuggrgoDJElYDn0OLzgMVJAThPeBNC7K3fz+M3e/Qtm3cIS0BmhH4GOFa4PCxaNEiE/AXEqNatWqa2HRQD+J5TqpdvMgUKVK4nDJABMUxw+kl45NnIHsImIzgyNu2baULF8KZaGYzUsGiRYvSN998S7Nnz3a7PS6IHuo4ZsynrrqGhR0xdYKN4aZNEStO8SaGXSMkrAiY/OijbLjOHswIA4MviMQ20cOn3wYPHmz6A7ACZnGdEDMKkxMkQyd4IIZ4PwOr7zBBYbBDjCioIO2hLBAUFqELYIuEwRBBbyFhQlwrqGnwTUt7mBJXwGQuE5/9AqlCwGR4zWHChlTLU8BkfyR6wLYOOyOU4UC1+ETSIQ6wK6FREEBa9uUd1GebntJs24OJAtcxsSVjdW7mrGn4ayE5ePGUjD58J8LWVOLl4csesMmzekSiXS3aVzNlYXBFHnuyEmbY9aHt8jm41Ut3eVQhQ9UHlR8SJCSQlDglBJJF+AuUjYDRCKAKco42njl5ib0L+V1z3Dm7alfiugEHSCixRR8BscQnx9BHPBE9X9rkD9EDuWjDXzpAHUBeQY4gmcJEhrZ4CnQbE1IEbDHpd+hV12zxDOCHtGfHMbNIMgf8T0L+HOXF05lTkUP+IN8qXhhZvx2Nr2KAeMMDF5+mgzMPgonDjhLngD1+Y5AOWlNM2iR9F+WBWMJkQUiz9RnYF6KHTwGC5OG3gXBM8NqGqj86ooiFX7u3nzIkHGTPjCUswYS9q1WV629/lfpiLIIGAv0BfRVOGOj7Tgm/A/w+8V7xPg9y8GwEPcb4Bakgxjf5Xrj1/rgget72PVFJY+G4kZ3kMObk5++XI0boNf7KTnSE3NpOX/cTLNEDwXr33d6GbAE0rGLwubAJEyY6StiswGbNmpWdI9pR0aJF2O4nqbkENSTUkZIQrPjll1+mBg2ednnd4hlr1641auFmzZoZ0jd27BfmuXKfdSvBgTds2MDSxmHWS5H24eDx+uuvUZkyZVzPQyaQxF27dtOsWbPihUQPdQLhhXNJgQIFXHV1cgipU6cOfwKtuVGl4j6QZmBcpkxZDjVTMdaJHp4BHDNlysgkfj8O4zzhG7cwCIf9UTaeVOA1igTCgcHvlyU7HD+/hDyYWGF7h8jrkIZKwoSw+PtNbjGt5BpIV42nSxiCKOeQH964GHDtyR8yYC0Dgz5CwUDdjLbBmxgJX9OwTjJyD9RzNbl+GBStCRMzyKt86gySIxAuePpNY7st+8of9z7BzizV6xY30kussuV7t9ZygSHIWB6O4SehT3AddnOepEGywofTAWyQoKJySiBdeD4CYku7MUagHVCzQUIF0rdgNn/tZsNBVxHADJ8IAxlAwj2IAYc4b83bVTGxCz0RPeT3tk3+vlvYRDZ88XHKkz8EjzMJavkt3IYl87Y4SkZjQorkGSAH9ZqUYUlsBvNlCJy3S3Yg4QI5iyo52bqBDIFElKtU0Nh6Wu/H+92wZq9ZHFnPx6RNeMewxQRxRhgghAPylIToYUGAkEYgd0joFwhbsoj7klPftpaHPlHvuccoNF+I8ZLFNXsQaH/7q/U54n0K6Sf6a1QJYx8WgljEye8D+dGXwg6eMe/W/ruOC6KHOnnT95DPfGKSQ0FBi4EEoosxC218hMd5legZWGL+T1S3zZu34A5zm/Lnz28+FwZVnfWrEN48CWQOKlEkhE5xuh8SLKhOQQjDwsJY0nbBm6JNnoEDBzCZLMok72OCxMublCRJEvP9XsTtu3z5kgnK7FQvb8oKdB5IUoEPEiR34pVsfS7yQGKJQQvOKdgm5CQTFWKriXQpOjwgkcCnwjBp4KsD0UWGBynEZIFwGJB6WKUb0T0rJtfxXKiOkW7yit+TBAPXQfTQJkwA8PKE9DHQCfZ+ie8RUZC4qBKcLCCFhbQtugSJAKSzCJdzhp0srJ6bUd0LMosJGp9Is0oro7rHfs2XNtnvje4Y7YKEERIM9LmoPmwfXVm+XEebUrBqEAnPju5d+VI27BAzMub4ogkkbXCK8WSH6VO5DplBLtGPPC0U5BYheh/d+7QX1PPA4CQHrLZ+FULyR7UFmYNkHAntc7rf3/6KMuWLF77Y2uJ3kSlLGjMegRidYWLtVC+UH9fJm76HMQuLDcxlp45fDMqclmAleiB6+N5sfE0PP5zPfB0DX2fo2LFTtFLG+NoOrVfsIuAP0YvdGmhpioAiEJ8QsBK9YJFpf9oPByWozrFwhPMYJHOagoOAEr3g4OzVUyC9QnDkrFmzsCNGe8qbNy9Nnz6dvv9+nlf3BzITbA6fe66JV4/YunUrfzf4Y6/yaibfEFCi5xtemlsReNARiM9EDxKu5CmSUIaMqY0jBiRZnr6+E+z3BJvDSk8W9eqxcBKCFPJ+TUr04tGbK1WqFHsC93HVCI4ViLeHYMdxneAtDNs6b1J4+AXjFOJNXs3jGwIw8od9x3GOPYWAoZoUAUUgYSMQn4keHA1e4hiHkmDnC2/x+DB2wbs9C5tMeJOgnneyUfbm3viQJ8ERvX//+xVjk4evVTiFNYnLlwIyVafOU4TPleErF1u2bI13dYxLfPTZioAioAgoAu4I1GpQ0th3wos+vqlD8W3mshXzG1tV4/3PDmTROYa4t06PYgOBBEf0YgM0LUMRUAQUAUVAEVAEFIH7AYGAEL1GjRoZD8qLF8Np+/YddPGic3iB+wEgraMioAgoAoqAIqAIKAL3KwIBIXpTpkw2X34AKPBsHT9+PK1cuep+xUjrrQgoAoqAIqAIKAKKwH2JQECIHr7qgPhoFSqUp5YtWxqJXps2bYMSL+a+fAtaaUVAEVAEFAFFQBFQBAKAQECInrWe+GZpSEgIgeiFh4dbL+m+IqAIKAKKgCKgCCgCikAAEQg40fvwww/Mp6569OhpvmwQwLZo0YqAIqAIKAKKgCKgCCgCFgQCTvQGDx5EhQsX5u+SvkP4zJgmRUARUAQUAUVAEVAEFIHgIKBELzg461MUAUVAEVAEFAFFQBEIOgIBJ3r9+/en4sUfoSFDhtDmzVuC3kB9oCKgCCgCioAioAgoAgkVgYATva5du1DlypVp/vwfaOrUqQkVZ223IqAIKAKKgCKgCCgCQUcg4ESvdOlS1LNnT/PZsQULFtK6devo/PnzdPbs2XjxDdegI64PVAQUAUVAEVAEFAFFIEgIBJzooR05cuSggQMHUPr06V3NUucMFxS6owgoAoqAIqAIKAKKQEAQCDjRy5o1K3Xr1o0KFSpIx48fp/Xr19O5c+dp9erVdOnSpYA0SgtVBBQBRUARUAQUAUVAESAKONFr3bo11atXl7Zu3coOGR/Q7du3FXdFQBFQBBQBRUARUAQUgSAgEHCi16dPH4Kd3vDhI4x9XhDapI9QBBQBRUARUAQUAUVAEWAEAk70JGBy7969ad++/Qq6IqAIKAKKgCKgCCgCikCQEAga0VPniyC9UX2MIqAIKAKKgCKgCCgC9xAIONEbMmQwO2IU0k+gaZdTBBQBRUARUAQUAUUgyAgEnOiNHDmCcuXKRZ06dabTp08HuXn6OEVAEVAEFAFFQBFQBBIuAgElejlz5mQnjGGUKFEiat68Bd26dSvhIq0tVwQUAUVAEVAEFAFFIMgIBITo9ezZgzJlykShoaGUNGlSWrJkCU2YMDHITdPHKQKKgCKgCCgCioAikLARCAjRGzRooPm82YUL4bRp05+0Zs2v+rmzhN3PtPWKgCKgCCgCioAiEAcIBIToxUE79JGKgCKgCCgCioAioAgoAjYElOjZANFDRUARUAQUAUVAEVAEHhQElOg9KG9S26EIKAKKgCKgCCgCioANASV6NkD0UBFQBBQBRUARUAQUgQcFASV6D8qb1HYoAoqAIqAIKAKKgCJgQ0CJng0QPVQEFAFFQBFQBBQBReBBQUCJ3oPyJrUdioAioAgoAoqAIqAI2BBQomcDRA8VAUVAEVAEFAFFQBF4UBBQovegvElthyKgCCgCioAioAgoAjYElOjZANFDRUARUAQUAUVAEVAEHhQE/g/Rxa7mE7g5bAAAAABJRU5ErkJggg==;fontStyle=1" vertex="1" parent="1">
          <mxGeometry x="90" y="209.78" width="250" height="40.22" as="geometry" />
        </mxCell>
      </root>
    </mxGraphModel>
  </diagram>
</mxfile>
